# xmcd
#
# Track frame offsets:
#	150
#	12670
#	32024
#	44271
#	62182
#	76542
#	89165
#	105867
#	122892
#	137851
#	147651
#	162561
#	174027
#	215855
#
# Disc length: 3182 seconds
#
# Revision: 1
# Processed by: cddbd v1.4PL0 Copyright (c) Steve Scherf et al.
# Submitted via: audiograbber 1.82.01
#
DISCID=c80c6c0e
DTITLE=Lou Rawls - Live At Century Plaza and Radio City Music Hall
DYEAR=1995
DGENRE=Jazz
TTITLE0=Autumn Leaves
TTITLE1=You've Made Me So Very Happy
TTITLE2=Yesterday
TTITLE3=Tobacco Road
TTITLE4=Down Here On The Ground
TTITLE5=Something
TTITLE6=Golden Slumbers
TTITLE7=Watch What Happens
TTITLE8=Love Is A Hurtin' Thing
TTITLE9=Now And Then There's A Fool
TTITLE10=Georgia On My Mind
TTITLE11=On A Clear Day
TTITLE12=Blues Medley
TTITLE13=Dead End Street
EXTD=
EXTT0=
EXTT1=
EXTT2=
EXTT3=
EXTT4=
EXTT5=
EXTT6=
EXTT7=
EXTT8=
EXTT9=
EXTT10=
EXTT11=
EXTT12=A: Stormy Monday\nB: In The Evening (When The Sun Goes Down]\nC: Goin' T
EXTT12=o Chicago Blues\nD: By, By Blackbird
EXTT13=
PLAYORDER=
